<?xml version="1.0" encoding="utf-8" standalone="no"?>
<!DOCTYPE svg PUBLIC "-//W3C//DTD SVG 1.1//EN"
  "http://www.w3.org/Graphics/SVG/1.1/DTD/svg11.dtd">
<svg xmlns:xlink="http://www.w3.org/1999/xlink" width="576pt" height="360pt" viewBox="0 0 576 360" xmlns="http://www.w3.org/2000/svg" version="1.1">
 <metadata>
  <rdf:RDF xmlns:dc="http://purl.org/dc/elements/1.1/" xmlns:cc="http://creativecommons.org/ns#" xmlns:rdf="http://www.w3.org/1999/02/22-rdf-syntax-ns#">
   <cc:Work>
    <dc:type rdf:resource="http://purl.org/dc/dcmitype/StillImage"/>
    <dc:date>2025-08-12T11:47:31.453626</dc:date>
    <dc:format>image/svg+xml</dc:format>
    <dc:creator>
     <cc:Agent>
      <dc:title>Matplotlib v3.10.3, https://matplotlib.org/</dc:title>
     </cc:Agent>
    </dc:creator>
   </cc:Work>
  </rdf:RDF>
 </metadata>
 <defs>
  <style type="text/css">*{stroke-linejoin: round; stroke-linecap: butt}</style>
 </defs>
 <g id="figure_1">
  <g id="patch_1">
   <path d="M 0 360 
L 576 360 
L 576 0 
L 0 0 
z
" style="fill: #ffffff"/>
  </g>
  <g id="axes_1">
   <g id="patch_2">
    <path d="M 72 320.4 
L 518.4 320.4 
L 518.4 43.2 
L 72 43.2 
z
" style="fill: #ffffff"/>
   </g>
   <g id="FillBetweenPolyCollection_1">
    <path d="M 92.290909 1666.190409 
L 92.290909 108.848313 
L 93.648161 108.793423 
L 95.005412 108.738533 
L 96.362663 108.683643 
L 97.719915 108.628753 
L 99.077166 108.573863 
L 100.434418 108.518973 
L 101.791669 108.464083 
L 103.148921 108.409193 
L 104.506172 108.354304 
L 105.863424 108.299414 
L 107.220675 108.244524 
L 108.577926 108.189634 
L 109.935178 108.134744 
L 111.292429 108.079854 
L 112.649681 108.024964 
L 114.006932 107.970074 
L 115.364184 107.915184 
L 116.721435 107.860295 
L 118.078687 107.805405 
L 119.435938 107.750515 
L 120.793189 107.695625 
L 122.150441 107.640735 
L 123.507692 107.585845 
L 124.864944 107.530955 
L 126.222195 107.476065 
L 127.579447 107.421175 
L 128.936698 107.366285 
L 130.29395 107.311396 
L 131.651201 107.256506 
L 133.008452 107.201616 
L 134.365704 107.146726 
L 135.722955 107.091836 
L 137.080207 107.036946 
L 138.437458 106.982056 
L 139.79471 106.927166 
L 141.151961 106.872276 
L 142.509213 106.817387 
L 143.866464 106.762497 
L 145.223715 106.707607 
L 146.580967 106.652717 
L 147.938218 106.597827 
L 149.29547 106.542937 
L 150.652721 106.488047 
L 152.009973 106.433157 
L 153.367224 106.378267 
L 154.724476 106.323378 
L 156.081727 106.268488 
L 157.438978 106.213598 
L 158.79623 106.158708 
L 160.153481 106.103818 
L 161.510733 106.048928 
L 162.867984 105.994038 
L 164.225236 105.939148 
L 165.582487 105.884258 
L 166.939739 105.829368 
L 168.29699 105.774479 
L 169.654241 105.719589 
L 171.011493 105.664699 
L 172.368744 105.609809 
L 173.725996 105.554919 
L 175.083247 105.500029 
L 176.440499 105.445139 
L 177.79775 105.390249 
L 179.155002 105.335359 
L 180.512253 105.28047 
L 181.869504 105.22558 
L 183.226756 105.17069 
L 184.584007 105.1158 
L 185.941259 105.06091 
L 187.29851 105.00602 
L 188.655762 104.95113 
L 190.013013 104.89624 
L 191.370265 104.84135 
L 192.727516 104.78646 
L 194.084767 104.731571 
L 195.442019 104.676681 
L 196.79927 104.621791 
L 198.156522 104.566901 
L 199.513773 104.512011 
L 200.871025 104.457121 
L 202.228276 104.402231 
L 203.585528 104.347341 
L 204.942779 104.292451 
L 206.30003 104.237562 
L 207.657282 104.182672 
L 209.014533 104.127782 
L 210.371785 104.072892 
L 211.729036 104.018002 
L 213.086288 103.963112 
L 214.443539 103.908222 
L 215.800791 103.853332 
L 217.158042 103.798442 
L 218.515293 103.743553 
L 219.872545 103.688663 
L 221.229796 103.633773 
L 222.587048 103.578883 
L 223.944299 103.523993 
L 225.301551 103.469103 
L 226.658802 103.414213 
L 228.016054 103.359323 
L 229.373305 103.304433 
L 230.730556 103.249543 
L 232.087808 103.194654 
L 233.445059 103.139764 
L 234.802311 103.084874 
L 236.159562 103.029984 
L 237.516814 102.975094 
L 238.874065 102.920204 
L 240.231317 102.865314 
L 241.588568 102.810424 
L 242.945819 102.755534 
L 244.303071 102.700645 
L 245.660322 102.645755 
L 247.017574 102.590865 
L 248.374825 102.535975 
L 249.732077 102.481085 
L 251.089328 102.426195 
L 252.44658 102.371305 
L 253.803831 102.316415 
L 255.161082 102.261525 
L 256.518334 102.206635 
L 257.875585 102.151746 
L 259.232837 102.096856 
L 260.590088 102.041966 
L 261.94734 101.987076 
L 263.304591 101.932186 
L 264.661843 101.877296 
L 266.019094 101.822406 
L 267.376345 101.767516 
L 268.733597 101.712626 
L 270.090848 101.657737 
L 271.4481 101.602847 
L 272.805351 101.547957 
L 274.162603 101.493067 
L 275.519854 101.438177 
L 276.877106 101.383287 
L 278.234357 101.328397 
L 279.591608 101.273507 
L 280.94886 101.218617 
L 282.306111 101.163728 
L 283.663363 101.108838 
L 285.020614 101.053948 
L 286.377866 100.999058 
L 287.735117 100.944168 
L 289.092369 100.889278 
L 290.44962 100.834388 
L 291.806871 100.779498 
L 293.164123 100.724608 
L 294.521374 100.669718 
L 295.878626 100.614829 
L 297.235877 100.559939 
L 298.593129 100.505049 
L 299.95038 100.450159 
L 301.307631 100.395269 
L 302.664883 100.340379 
L 304.022134 100.285489 
L 305.379386 100.230599 
L 306.736637 100.175709 
L 308.093889 100.12082 
L 309.45114 100.06593 
L 310.808392 100.01104 
L 312.165643 99.95615 
L 313.522894 99.90126 
L 314.880146 99.84637 
L 316.237397 99.79148 
L 317.594649 99.73659 
L 318.9519 99.6817 
L 320.309152 99.626811 
L 321.666403 99.571921 
L 323.023655 99.517031 
L 324.380906 99.462141 
L 325.738157 99.407251 
L 327.095409 99.352361 
L 328.45266 99.297471 
L 329.809912 99.242581 
L 331.167163 99.187691 
L 332.524415 99.132801 
L 333.881666 99.077912 
L 335.238918 99.023022 
L 336.596169 98.968132 
L 337.95342 98.913242 
L 339.310672 98.858352 
L 340.667923 98.803462 
L 342.025175 98.748572 
L 343.382426 98.693682 
L 344.739678 98.638792 
L 346.096929 98.583903 
L 347.454181 98.529013 
L 348.811432 98.474123 
L 350.168683 98.419233 
L 351.525935 98.364343 
L 352.883186 98.309453 
L 354.240438 98.254563 
L 355.597689 98.199673 
L 356.954941 98.144783 
L 358.312192 98.089893 
L 359.669444 98.035004 
L 361.026695 97.980114 
L 362.383946 97.925224 
L 363.741198 97.870334 
L 365.098449 97.815444 
L 366.455701 97.760554 
L 367.812952 97.705664 
L 369.170204 97.650774 
L 370.527455 97.595884 
L 371.884707 97.540995 
L 373.241958 97.486105 
L 374.599209 97.431215 
L 375.956461 97.376325 
L 377.313712 97.321435 
L 378.670964 97.266545 
L 380.028215 97.211655 
L 381.385467 97.156765 
L 382.742718 97.101875 
L 384.09997 97.046986 
L 385.457221 96.992096 
L 386.814472 96.937206 
L 388.171724 96.882316 
L 389.528975 96.827426 
L 390.886227 96.772536 
L 392.243478 96.717646 
L 393.60073 96.662756 
L 394.957981 96.607866 
L 396.315233 96.552976 
L 397.672484 96.498087 
L 399.029735 96.443197 
L 400.386987 96.388307 
L 401.744238 96.333417 
L 403.10149 96.278527 
L 404.458741 96.223637 
L 405.815993 96.168747 
L 407.173244 96.113857 
L 408.530496 96.058967 
L 409.887747 96.004078 
L 411.244998 95.949188 
L 412.60225 95.894298 
L 413.959501 95.839408 
L 415.316753 95.784518 
L 416.674004 95.729628 
L 418.031256 95.674738 
L 419.388507 95.619848 
L 420.745759 95.564958 
L 422.10301 95.510068 
L 423.460261 95.455179 
L 424.817513 95.400289 
L 426.174764 95.345399 
L 427.532016 95.290509 
L 428.889267 95.235619 
L 430.246519 95.180729 
L 431.60377 95.125839 
L 432.961022 95.070949 
L 434.318273 95.016059 
L 435.675524 94.96117 
L 437.032776 94.90628 
L 438.390027 94.85139 
L 439.747279 94.7965 
L 441.10453 94.74161 
L 442.461782 94.68672 
L 443.819033 94.63183 
L 445.176285 94.57694 
L 446.533536 94.52205 
L 447.890787 94.467161 
L 449.248039 94.412271 
L 450.60529 94.357381 
L 451.962542 94.302491 
L 453.319793 94.247601 
L 454.677045 94.192711 
L 456.034296 94.137821 
L 457.391548 94.082931 
L 458.748799 94.028041 
L 460.10605 93.973151 
L 461.463302 93.918262 
L 462.820553 93.863372 
L 464.177805 93.808482 
L 465.535056 93.753592 
L 466.892308 93.698702 
L 468.249559 93.643812 
L 469.606811 93.588922 
L 470.964062 93.534032 
L 472.321313 93.479142 
L 473.678565 93.424253 
L 475.035816 93.369363 
L 476.393068 93.314473 
L 477.750319 93.259583 
L 479.107571 93.204693 
L 480.464822 93.149803 
L 481.822074 93.094913 
L 483.179325 93.040023 
L 484.536576 92.985133 
L 485.893828 92.930243 
L 487.251079 92.875354 
L 488.608331 92.820464 
L 489.965582 92.765574 
L 491.322834 92.710684 
L 492.680085 92.655794 
L 494.037337 92.600904 
L 495.394588 92.546014 
L 496.751839 92.491124 
L 498.109091 92.436234 
L 498.109091 1666.190409 
L 498.109091 1666.190409 
L 496.751839 1666.190409 
L 495.394588 1666.190409 
L 494.037337 1666.190409 
L 492.680085 1666.190409 
L 491.322834 1666.190409 
L 489.965582 1666.190409 
L 488.608331 1666.190409 
L 487.251079 1666.190409 
L 485.893828 1666.190409 
L 484.536576 1666.190409 
L 483.179325 1666.190409 
L 481.822074 1666.190409 
L 480.464822 1666.190409 
L 479.107571 1666.190409 
L 477.750319 1666.190409 
L 476.393068 1666.190409 
L 475.035816 1666.190409 
L 473.678565 1666.190409 
L 472.321313 1666.190409 
L 470.964062 1666.190409 
L 469.606811 1666.190409 
L 468.249559 1666.190409 
L 466.892308 1666.190409 
L 465.535056 1666.190409 
L 464.177805 1666.190409 
L 462.820553 1666.190409 
L 461.463302 1666.190409 
L 460.10605 1666.190409 
L 458.748799 1666.190409 
L 457.391548 1666.190409 
L 456.034296 1666.190409 
L 454.677045 1666.190409 
L 453.319793 1666.190409 
L 451.962542 1666.190409 
L 450.60529 1666.190409 
L 449.248039 1666.190409 
L 447.890787 1666.190409 
L 446.533536 1666.190409 
L 445.176285 1666.190409 
L 443.819033 1666.190409 
L 442.461782 1666.190409 
L 441.10453 1666.190409 
L 439.747279 1666.190409 
L 438.390027 1666.190409 
L 437.032776 1666.190409 
L 435.675524 1666.190409 
L 434.318273 1666.190409 
L 432.961022 1666.190409 
L 431.60377 1666.190409 
L 430.246519 1666.190409 
L 428.889267 1666.190409 
L 427.532016 1666.190409 
L 426.174764 1666.190409 
L 424.817513 1666.190409 
L 423.460261 1666.190409 
L 422.10301 1666.190409 
L 420.745759 1666.190409 
L 419.388507 1666.190409 
L 418.031256 1666.190409 
L 416.674004 1666.190409 
L 415.316753 1666.190409 
L 413.959501 1666.190409 
L 412.60225 1666.190409 
L 411.244998 1666.190409 
L 409.887747 1666.190409 
L 408.530496 1666.190409 
L 407.173244 1666.190409 
L 405.815993 1666.190409 
L 404.458741 1666.190409 
L 403.10149 1666.190409 
L 401.744238 1666.190409 
L 400.386987 1666.190409 
L 399.029735 1666.190409 
L 397.672484 1666.190409 
L 396.315233 1666.190409 
L 394.957981 1666.190409 
L 393.60073 1666.190409 
L 392.243478 1666.190409 
L 390.886227 1666.190409 
L 389.528975 1666.190409 
L 388.171724 1666.190409 
L 386.814472 1666.190409 
L 385.457221 1666.190409 
L 384.09997 1666.190409 
L 382.742718 1666.190409 
L 381.385467 1666.190409 
L 380.028215 1666.190409 
L 378.670964 1666.190409 
L 377.313712 1666.190409 
L 375.956461 1666.190409 
L 374.599209 1666.190409 
L 373.241958 1666.190409 
L 371.884707 1666.190409 
L 370.527455 1666.190409 
L 369.170204 1666.190409 
L 367.812952 1666.190409 
L 366.455701 1666.190409 
L 365.098449 1666.190409 
L 363.741198 1666.190409 
L 362.383946 1666.190409 
L 361.026695 1666.190409 
L 359.669444 1666.190409 
L 358.312192 1666.190409 
L 356.954941 1666.190409 
L 355.597689 1666.190409 
L 354.240438 1666.190409 
L 352.883186 1666.190409 
L 351.525935 1666.190409 
L 350.168683 1666.190409 
L 348.811432 1666.190409 
L 347.454181 1666.190409 
L 346.096929 1666.190409 
L 344.739678 1666.190409 
L 343.382426 1666.190409 
L 342.025175 1666.190409 
L 340.667923 1666.190409 
L 339.310672 1666.190409 
L 337.95342 1666.190409 
L 336.596169 1666.190409 
L 335.238918 1666.190409 
L 333.881666 1666.190409 
L 332.524415 1666.190409 
L 331.167163 1666.190409 
L 329.809912 1666.190409 
L 328.45266 1666.190409 
L 327.095409 1666.190409 
L 325.738157 1666.190409 
L 324.380906 1666.190409 
L 323.023655 1666.190409 
L 321.666403 1666.190409 
L 320.309152 1666.190409 
L 318.9519 1666.190409 
L 317.594649 1666.190409 
L 316.237397 1666.190409 
L 314.880146 1666.190409 
L 313.522894 1666.190409 
L 312.165643 1666.190409 
L 310.808392 1666.190409 
L 309.45114 1666.190409 
L 308.093889 1666.190409 
L 306.736637 1666.190409 
L 305.379386 1666.190409 
L 304.022134 1666.190409 
L 302.664883 1666.190409 
L 301.307631 1666.190409 
L 299.95038 1666.190409 
L 298.593129 1666.190409 
L 297.235877 1666.190409 
L 295.878626 1666.190409 
L 294.521374 1666.190409 
L 293.164123 1666.190409 
L 291.806871 1666.190409 
L 290.44962 1666.190409 
L 289.092369 1666.190409 
L 287.735117 1666.190409 
L 286.377866 1666.190409 
L 285.020614 1666.190409 
L 283.663363 1666.190409 
L 282.306111 1666.190409 
L 280.94886 1666.190409 
L 279.591608 1666.190409 
L 278.234357 1666.190409 
L 276.877106 1666.190409 
L 275.519854 1666.190409 
L 274.162603 1666.190409 
L 272.805351 1666.190409 
L 271.4481 1666.190409 
L 270.090848 1666.190409 
L 268.733597 1666.190409 
L 267.376345 1666.190409 
L 266.019094 1666.190409 
L 264.661843 1666.190409 
L 263.304591 1666.190409 
L 261.94734 1666.190409 
L 260.590088 1666.190409 
L 259.232837 1666.190409 
L 257.875585 1666.190409 
L 256.518334 1666.190409 
L 255.161082 1666.190409 
L 253.803831 1666.190409 
L 252.44658 1666.190409 
L 251.089328 1666.190409 
L 249.732077 1666.190409 
L 248.374825 1666.190409 
L 247.017574 1666.190409 
L 245.660322 1666.190409 
L 244.303071 1666.190409 
L 242.945819 1666.190409 
L 241.588568 1666.190409 
L 240.231317 1666.190409 
L 238.874065 1666.190409 
L 237.516814 1666.190409 
L 236.159562 1666.190409 
L 234.802311 1666.190409 
L 233.445059 1666.190409 
L 232.087808 1666.190409 
L 230.730556 1666.190409 
L 229.373305 1666.190409 
L 228.016054 1666.190409 
L 226.658802 1666.190409 
L 225.301551 1666.190409 
L 223.944299 1666.190409 
L 222.587048 1666.190409 
L 221.229796 1666.190409 
L 219.872545 1666.190409 
L 218.515293 1666.190409 
L 217.158042 1666.190409 
L 215.800791 1666.190409 
L 214.443539 1666.190409 
L 213.086288 1666.190409 
L 211.729036 1666.190409 
L 210.371785 1666.190409 
L 209.014533 1666.190409 
L 207.657282 1666.190409 
L 206.30003 1666.190409 
L 204.942779 1666.190409 
L 203.585528 1666.190409 
L 202.228276 1666.190409 
L 200.871025 1666.190409 
L 199.513773 1666.190409 
L 198.156522 1666.190409 
L 196.79927 1666.190409 
L 195.442019 1666.190409 
L 194.084767 1666.190409 
L 192.727516 1666.190409 
L 191.370265 1666.190409 
L 190.013013 1666.190409 
L 188.655762 1666.190409 
L 187.29851 1666.190409 
L 185.941259 1666.190409 
L 184.584007 1666.190409 
L 183.226756 1666.190409 
L 181.869504 1666.190409 
L 180.512253 1666.190409 
L 179.155002 1666.190409 
L 177.79775 1666.190409 
L 176.440499 1666.190409 
L 175.083247 1666.190409 
L 173.725996 1666.190409 
L 172.368744 1666.190409 
L 171.011493 1666.190409 
L 169.654241 1666.190409 
L 168.29699 1666.190409 
L 166.939739 1666.190409 
L 165.582487 1666.190409 
L 164.225236 1666.190409 
L 162.867984 1666.190409 
L 161.510733 1666.190409 
L 160.153481 1666.190409 
L 158.79623 1666.190409 
L 157.438978 1666.190409 
L 156.081727 1666.190409 
L 154.724476 1666.190409 
L 153.367224 1666.190409 
L 152.009973 1666.190409 
L 150.652721 1666.190409 
L 149.29547 1666.190409 
L 147.938218 1666.190409 
L 146.580967 1666.190409 
L 145.223715 1666.190409 
L 143.866464 1666.190409 
L 142.509213 1666.190409 
L 141.151961 1666.190409 
L 139.79471 1666.190409 
L 138.437458 1666.190409 
L 137.080207 1666.190409 
L 135.722955 1666.190409 
L 134.365704 1666.190409 
L 133.008452 1666.190409 
L 131.651201 1666.190409 
L 130.29395 1666.190409 
L 128.936698 1666.190409 
L 127.579447 1666.190409 
L 126.222195 1666.190409 
L 124.864944 1666.190409 
L 123.507692 1666.190409 
L 122.150441 1666.190409 
L 120.793189 1666.190409 
L 119.435938 1666.190409 
L 118.078687 1666.190409 
L 116.721435 1666.190409 
L 115.364184 1666.190409 
L 114.006932 1666.190409 
L 112.649681 1666.190409 
L 111.292429 1666.190409 
L 109.935178 1666.190409 
L 108.577926 1666.190409 
L 107.220675 1666.190409 
L 105.863424 1666.190409 
L 104.506172 1666.190409 
L 103.148921 1666.190409 
L 101.791669 1666.190409 
L 100.434418 1666.190409 
L 99.077166 1666.190409 
L 97.719915 1666.190409 
L 96.362663 1666.190409 
L 95.005412 1666.190409 
L 93.648161 1666.190409 
L 92.290909 1666.190409 
z
" clip-path="url(#p970d725cb1)" style="fill: #1f77b4; fill-opacity: 0.1; stroke: #1f77b4; stroke-opacity: 0.1"/>
   </g>
   <g id="FillBetweenPolyCollection_2">
    <path d="M 92.290909 1666.190409 
L 92.290909 238.339609 
L 93.648161 237.909272 
L 95.005412 237.478936 
L 96.362663 237.048599 
L 97.719915 236.618262 
L 99.077166 236.187925 
L 100.434418 235.757589 
L 101.791669 235.327252 
L 103.148921 234.896915 
L 104.506172 234.466578 
L 105.863424 234.036242 
L 107.220675 233.605905 
L 108.577926 233.175568 
L 109.935178 232.745231 
L 111.292429 232.314895 
L 112.649681 231.884558 
L 114.006932 231.454221 
L 115.364184 231.023884 
L 116.721435 230.593547 
L 118.078687 230.163211 
L 119.435938 229.732874 
L 120.793189 229.302537 
L 122.150441 228.8722 
L 123.507692 228.441864 
L 124.864944 228.011527 
L 126.222195 227.58119 
L 127.579447 227.150853 
L 128.936698 226.720517 
L 130.29395 226.29018 
L 131.651201 225.859843 
L 133.008452 225.429506 
L 134.365704 224.99917 
L 135.722955 224.568833 
L 137.080207 224.138496 
L 138.437458 223.708159 
L 139.79471 223.277822 
L 141.151961 222.847486 
L 142.509213 222.417149 
L 143.866464 221.986812 
L 145.223715 221.556475 
L 146.580967 221.126139 
L 147.938218 220.695802 
L 149.29547 220.265465 
L 150.652721 219.835128 
L 152.009973 219.404792 
L 153.367224 218.974455 
L 154.724476 218.544118 
L 156.081727 218.113781 
L 157.438978 217.683445 
L 158.79623 217.253108 
L 160.153481 216.822771 
L 161.510733 216.392434 
L 162.867984 215.962097 
L 164.225236 215.531761 
L 165.582487 215.101424 
L 166.939739 214.671087 
L 168.29699 214.24075 
L 169.654241 213.810414 
L 171.011493 213.380077 
L 172.368744 212.94974 
L 173.725996 212.519403 
L 175.083247 212.089067 
L 176.440499 211.65873 
L 177.79775 211.228393 
L 179.155002 210.798056 
L 180.512253 210.36772 
L 181.869504 209.937383 
L 183.226756 209.507046 
L 184.584007 209.076709 
L 185.941259 208.646372 
L 187.29851 208.216036 
L 188.655762 207.785699 
L 190.013013 207.355362 
L 191.370265 206.925025 
L 192.727516 206.494689 
L 194.084767 206.064352 
L 195.442019 205.634015 
L 196.79927 205.203678 
L 198.156522 204.773342 
L 199.513773 204.343005 
L 200.871025 203.912668 
L 202.228276 203.482331 
L 203.585528 203.051995 
L 204.942779 202.621658 
L 206.30003 202.191321 
L 207.657282 201.760984 
L 209.014533 201.330647 
L 210.371785 200.900311 
L 211.729036 200.469974 
L 213.086288 200.039637 
L 214.443539 199.6093 
L 215.800791 199.178964 
L 217.158042 198.748627 
L 218.515293 198.31829 
L 219.872545 197.887953 
L 221.229796 197.457617 
L 222.587048 197.02728 
L 223.944299 196.596943 
L 225.301551 196.166606 
L 226.658802 195.73627 
L 228.016054 195.305933 
L 229.373305 194.875596 
L 230.730556 194.445259 
L 232.087808 194.014922 
L 233.445059 193.584586 
L 234.802311 193.154249 
L 236.159562 192.723912 
L 237.516814 192.293575 
L 238.874065 191.863239 
L 240.231317 191.432902 
L 241.588568 191.002565 
L 242.945819 190.572228 
L 244.303071 190.141892 
L 245.660322 189.711555 
L 247.017574 189.281218 
L 248.374825 188.850881 
L 249.732077 188.420545 
L 251.089328 187.990208 
L 252.44658 187.559871 
L 253.803831 187.129534 
L 255.161082 186.699197 
L 256.518334 186.268861 
L 257.875585 185.838524 
L 259.232837 185.408187 
L 260.590088 184.97785 
L 261.94734 184.547514 
L 263.304591 184.117177 
L 264.661843 183.68684 
L 266.019094 183.256503 
L 267.376345 182.826167 
L 268.733597 182.39583 
L 270.090848 181.965493 
L 271.4481 181.535156 
L 272.805351 181.104819 
L 274.162603 180.674483 
L 275.519854 180.244146 
L 276.877106 179.813809 
L 278.234357 179.383472 
L 279.591608 178.953136 
L 280.94886 178.522799 
L 282.306111 178.092462 
L 283.663363 177.662125 
L 285.020614 177.231789 
L 286.377866 176.801452 
L 287.735117 176.371115 
L 289.092369 175.940778 
L 290.44962 175.510442 
L 291.806871 175.080105 
L 293.164123 174.649768 
L 294.521374 174.219431 
L 295.878626 173.789094 
L 297.235877 173.358758 
L 298.593129 172.928421 
L 299.95038 172.498084 
L 301.307631 172.067747 
L 302.664883 171.637411 
L 304.022134 171.207074 
L 305.379386 170.776737 
L 306.736637 170.3464 
L 308.093889 169.916064 
L 309.45114 169.485727 
L 310.808392 169.05539 
L 312.165643 168.625053 
L 313.522894 168.194717 
L 314.880146 167.76438 
L 316.237397 167.334043 
L 317.594649 166.903706 
L 318.9519 166.473369 
L 320.309152 166.043033 
L 321.666403 165.612696 
L 323.023655 165.182359 
L 324.380906 164.752022 
L 325.738157 164.321686 
L 327.095409 163.891349 
L 328.45266 163.461012 
L 329.809912 163.030675 
L 331.167163 162.600339 
L 332.524415 162.170002 
L 333.881666 161.739665 
L 335.238918 161.309328 
L 336.596169 160.878992 
L 337.95342 160.448655 
L 339.310672 160.018318 
L 340.667923 159.587981 
L 342.025175 159.157644 
L 343.382426 158.727308 
L 344.739678 158.296971 
L 346.096929 157.866634 
L 347.454181 157.436297 
L 348.811432 157.005961 
L 350.168683 156.575624 
L 351.525935 156.145287 
L 352.883186 155.71495 
L 354.240438 155.284614 
L 355.597689 154.854277 
L 356.954941 154.42394 
L 358.312192 153.993603 
L 359.669444 153.563267 
L 361.026695 153.13293 
L 362.383946 152.702593 
L 363.741198 152.272256 
L 365.098449 151.841919 
L 366.455701 151.411583 
L 367.812952 150.981246 
L 369.170204 150.550909 
L 370.527455 150.120572 
L 371.884707 149.690236 
L 373.241958 149.259899 
L 374.599209 148.829562 
L 375.956461 148.399225 
L 377.313712 147.968889 
L 378.670964 147.538552 
L 380.028215 147.108215 
L 381.385467 146.677878 
L 382.742718 146.247542 
L 384.09997 145.817205 
L 385.457221 145.386868 
L 386.814472 144.956531 
L 388.171724 144.526194 
L 389.528975 144.095858 
L 390.886227 143.665521 
L 392.243478 143.235184 
L 393.60073 142.804847 
L 394.957981 142.374511 
L 396.315233 141.944174 
L 397.672484 141.513837 
L 399.029735 141.0835 
L 400.386987 140.653164 
L 401.744238 140.222827 
L 403.10149 139.79249 
L 404.458741 139.362153 
L 405.815993 138.931817 
L 407.173244 138.50148 
L 408.530496 138.071143 
L 409.887747 137.640806 
L 411.244998 137.210469 
L 412.60225 136.780133 
L 413.959501 136.349796 
L 415.316753 135.919459 
L 416.674004 135.489122 
L 418.031256 135.058786 
L 419.388507 134.628449 
L 420.745759 134.198112 
L 422.10301 133.767775 
L 423.460261 133.337439 
L 424.817513 132.907102 
L 426.174764 132.476765 
L 427.532016 132.046428 
L 428.889267 131.616092 
L 430.246519 131.185755 
L 431.60377 130.755418 
L 432.961022 130.325081 
L 434.318273 129.894744 
L 435.675524 129.464408 
L 437.032776 129.034071 
L 438.390027 128.603734 
L 439.747279 128.173397 
L 441.10453 127.743061 
L 442.461782 127.312724 
L 443.819033 126.882387 
L 445.176285 126.45205 
L 446.533536 126.021714 
L 447.890787 125.591377 
L 449.248039 125.16104 
L 450.60529 124.730703 
L 451.962542 124.300367 
L 453.319793 123.87003 
L 454.677045 123.439693 
L 456.034296 123.009356 
L 457.391548 122.579019 
L 458.748799 122.148683 
L 460.10605 121.718346 
L 461.463302 121.288009 
L 462.820553 120.857672 
L 464.177805 120.427336 
L 465.535056 119.996999 
L 466.892308 119.566662 
L 468.249559 119.136325 
L 469.606811 118.705989 
L 470.964062 118.275652 
L 472.321313 117.845315 
L 473.678565 117.414978 
L 475.035816 116.984642 
L 476.393068 116.554305 
L 477.750319 116.123968 
L 479.107571 115.693631 
L 480.464822 115.263294 
L 481.822074 114.832958 
L 483.179325 114.402621 
L 484.536576 113.972284 
L 485.893828 113.541947 
L 487.251079 113.111611 
L 488.608331 112.681274 
L 489.965582 112.250937 
L 491.322834 111.8206 
L 492.680085 111.390264 
L 494.037337 110.959927 
L 495.394588 110.52959 
L 496.751839 110.099253 
L 498.109091 109.668917 
L 498.109091 1666.190409 
L 498.109091 1666.190409 
L 496.751839 1666.190409 
L 495.394588 1666.190409 
L 494.037337 1666.190409 
L 492.680085 1666.190409 
L 491.322834 1666.190409 
L 489.965582 1666.190409 
L 488.608331 1666.190409 
L 487.251079 1666.190409 
L 485.893828 1666.190409 
L 484.536576 1666.190409 
L 483.179325 1666.190409 
L 481.822074 1666.190409 
L 480.464822 1666.190409 
L 479.107571 1666.190409 
L 477.750319 1666.190409 
L 476.393068 1666.190409 
L 475.035816 1666.190409 
L 473.678565 1666.190409 
L 472.321313 1666.190409 
L 470.964062 1666.190409 
L 469.606811 1666.190409 
L 468.249559 1666.190409 
L 466.892308 1666.190409 
L 465.535056 1666.190409 
L 464.177805 1666.190409 
L 462.820553 1666.190409 
L 461.463302 1666.190409 
L 460.10605 1666.190409 
L 458.748799 1666.190409 
L 457.391548 1666.190409 
L 456.034296 1666.190409 
L 454.677045 1666.190409 
L 453.319793 1666.190409 
L 451.962542 1666.190409 
L 450.60529 1666.190409 
L 449.248039 1666.190409 
L 447.890787 1666.190409 
L 446.533536 1666.190409 
L 445.176285 1666.190409 
L 443.819033 1666.190409 
L 442.461782 1666.190409 
L 441.10453 1666.190409 
L 439.747279 1666.190409 
L 438.390027 1666.190409 
L 437.032776 1666.190409 
L 435.675524 1666.190409 
L 434.318273 1666.190409 
L 432.961022 1666.190409 
L 431.60377 1666.190409 
L 430.246519 1666.190409 
L 428.889267 1666.190409 
L 427.532016 1666.190409 
L 426.174764 1666.190409 
L 424.817513 1666.190409 
L 423.460261 1666.190409 
L 422.10301 1666.190409 
L 420.745759 1666.190409 
L 419.388507 1666.190409 
L 418.031256 1666.190409 
L 416.674004 1666.190409 
L 415.316753 1666.190409 
L 413.959501 1666.190409 
L 412.60225 1666.190409 
L 411.244998 1666.190409 
L 409.887747 1666.190409 
L 408.530496 1666.190409 
L 407.173244 1666.190409 
L 405.815993 1666.190409 
L 404.458741 1666.190409 
L 403.10149 1666.190409 
L 401.744238 1666.190409 
L 400.386987 1666.190409 
L 399.029735 1666.190409 
L 397.672484 1666.190409 
L 396.315233 1666.190409 
L 394.957981 1666.190409 
L 393.60073 1666.190409 
L 392.243478 1666.190409 
L 390.886227 1666.190409 
L 389.528975 1666.190409 
L 388.171724 1666.190409 
L 386.814472 1666.190409 
L 385.457221 1666.190409 
L 384.09997 1666.190409 
L 382.742718 1666.190409 
L 381.385467 1666.190409 
L 380.028215 1666.190409 
L 378.670964 1666.190409 
L 377.313712 1666.190409 
L 375.956461 1666.190409 
L 374.599209 1666.190409 
L 373.241958 1666.190409 
L 371.884707 1666.190409 
L 370.527455 1666.190409 
L 369.170204 1666.190409 
L 367.812952 1666.190409 
L 366.455701 1666.190409 
L 365.098449 1666.190409 
L 363.741198 1666.190409 
L 362.383946 1666.190409 
L 361.026695 1666.190409 
L 359.669444 1666.190409 
L 358.312192 1666.190409 
L 356.954941 1666.190409 
L 355.597689 1666.190409 
L 354.240438 1666.190409 
L 352.883186 1666.190409 
L 351.525935 1666.190409 
L 350.168683 1666.190409 
L 348.811432 1666.190409 
L 347.454181 1666.190409 
L 346.096929 1666.190409 
L 344.739678 1666.190409 
L 343.382426 1666.190409 
L 342.025175 1666.190409 
L 340.667923 1666.190409 
L 339.310672 1666.190409 
L 337.95342 1666.190409 
L 336.596169 1666.190409 
L 335.238918 1666.190409 
L 333.881666 1666.190409 
L 332.524415 1666.190409 
L 331.167163 1666.190409 
L 329.809912 1666.190409 
L 328.45266 1666.190409 
L 327.095409 1666.190409 
L 325.738157 1666.190409 
L 324.380906 1666.190409 
L 323.023655 1666.190409 
L 321.666403 1666.190409 
L 320.309152 1666.190409 
L 318.9519 1666.190409 
L 317.594649 1666.190409 
L 316.237397 1666.190409 
L 314.880146 1666.190409 
L 313.522894 1666.190409 
L 312.165643 1666.190409 
L 310.808392 1666.190409 
L 309.45114 1666.190409 
L 308.093889 1666.190409 
L 306.736637 1666.190409 
L 305.379386 1666.190409 
L 304.022134 1666.190409 
L 302.664883 1666.190409 
L 301.307631 1666.190409 
L 299.95038 1666.190409 
L 298.593129 1666.190409 
L 297.235877 1666.190409 
L 295.878626 1666.190409 
L 294.521374 1666.190409 
L 293.164123 1666.190409 
L 291.806871 1666.190409 
L 290.44962 1666.190409 
L 289.092369 1666.190409 
L 287.735117 1666.190409 
L 286.377866 1666.190409 
L 285.020614 1666.190409 
L 283.663363 1666.190409 
L 282.306111 1666.190409 
L 280.94886 1666.190409 
L 279.591608 1666.190409 
L 278.234357 1666.190409 
L 276.877106 1666.190409 
L 275.519854 1666.190409 
L 274.162603 1666.190409 
L 272.805351 1666.190409 
L 271.4481 1666.190409 
L 270.090848 1666.190409 
L 268.733597 1666.190409 
L 267.376345 1666.190409 
L 266.019094 1666.190409 
L 264.661843 1666.190409 
L 263.304591 1666.190409 
L 261.94734 1666.190409 
L 260.590088 1666.190409 
L 259.232837 1666.190409 
L 257.875585 1666.190409 
L 256.518334 1666.190409 
L 255.161082 1666.190409 
L 253.803831 1666.190409 
L 252.44658 1666.190409 
L 251.089328 1666.190409 
L 249.732077 1666.190409 
L 248.374825 1666.190409 
L 247.017574 1666.190409 
L 245.660322 1666.190409 
L 244.303071 1666.190409 
L 242.945819 1666.190409 
L 241.588568 1666.190409 
L 240.231317 1666.190409 
L 238.874065 1666.190409 
L 237.516814 1666.190409 
L 236.159562 1666.190409 
L 234.802311 1666.190409 
L 233.445059 1666.190409 
L 232.087808 1666.190409 
L 230.730556 1666.190409 
L 229.373305 1666.190409 
L 228.016054 1666.190409 
L 226.658802 1666.190409 
L 225.301551 1666.190409 
L 223.944299 1666.190409 
L 222.587048 1666.190409 
L 221.229796 1666.190409 
L 219.872545 1666.190409 
L 218.515293 1666.190409 
L 217.158042 1666.190409 
L 215.800791 1666.190409 
L 214.443539 1666.190409 
L 213.086288 1666.190409 
L 211.729036 1666.190409 
L 210.371785 1666.190409 
L 209.014533 1666.190409 
L 207.657282 1666.190409 
L 206.30003 1666.190409 
L 204.942779 1666.190409 
L 203.585528 1666.190409 
L 202.228276 1666.190409 
L 200.871025 1666.190409 
L 199.513773 1666.190409 
L 198.156522 1666.190409 
L 196.79927 1666.190409 
L 195.442019 1666.190409 
L 194.084767 1666.190409 
L 192.727516 1666.190409 
L 191.370265 1666.190409 
L 190.013013 1666.190409 
L 188.655762 1666.190409 
L 187.29851 1666.190409 
L 185.941259 1666.190409 
L 184.584007 1666.190409 
L 183.226756 1666.190409 
L 181.869504 1666.190409 
L 180.512253 1666.190409 
L 179.155002 1666.190409 
L 177.79775 1666.190409 
L 176.440499 1666.190409 
L 175.083247 1666.190409 
L 173.725996 1666.190409 
L 172.368744 1666.190409 
L 171.011493 1666.190409 
L 169.654241 1666.190409 
L 168.29699 1666.190409 
L 166.939739 1666.190409 
L 165.582487 1666.190409 
L 164.225236 1666.190409 
L 162.867984 1666.190409 
L 161.510733 1666.190409 
L 160.153481 1666.190409 
L 158.79623 1666.190409 
L 157.438978 1666.190409 
L 156.081727 1666.190409 
L 154.724476 1666.190409 
L 153.367224 1666.190409 
L 152.009973 1666.190409 
L 150.652721 1666.190409 
L 149.29547 1666.190409 
L 147.938218 1666.190409 
L 146.580967 1666.190409 
L 145.223715 1666.190409 
L 143.866464 1666.190409 
L 142.509213 1666.190409 
L 141.151961 1666.190409 
L 139.79471 1666.190409 
L 138.437458 1666.190409 
L 137.080207 1666.190409 
L 135.722955 1666.190409 
L 134.365704 1666.190409 
L 133.008452 1666.190409 
L 131.651201 1666.190409 
L 130.29395 1666.190409 
L 128.936698 1666.190409 
L 127.579447 1666.190409 
L 126.222195 1666.190409 
L 124.864944 1666.190409 
L 123.507692 1666.190409 
L 122.150441 1666.190409 
L 120.793189 1666.190409 
L 119.435938 1666.190409 
L 118.078687 1666.190409 
L 116.721435 1666.190409 
L 115.364184 1666.190409 
L 114.006932 1666.190409 
L 112.649681 1666.190409 
L 111.292429 1666.190409 
L 109.935178 1666.190409 
L 108.577926 1666.190409 
L 107.220675 1666.190409 
L 105.863424 1666.190409 
L 104.506172 1666.190409 
L 103.148921 1666.190409 
L 101.791669 1666.190409 
L 100.434418 1666.190409 
L 99.077166 1666.190409 
L 97.719915 1666.190409 
L 96.362663 1666.190409 
L 95.005412 1666.190409 
L 93.648161 1666.190409 
L 92.290909 1666.190409 
z
" clip-path="url(#p970d725cb1)" style="fill: #ff7f0e; fill-opacity: 0.1; stroke: #ff7f0e; stroke-opacity: 0.1"/>
   </g>
   <g id="matplotlib.axis_1">
    <g id="xtick_1">
     <g id="line2d_1">
      <path d="M 92.290909 320.4 
L 92.290909 43.2 
" clip-path="url(#p970d725cb1)" style="fill: none; stroke-dasharray: 2.96,1.28; stroke-dashoffset: 0; stroke: #b0b0b0; stroke-opacity: 0.6; stroke-width: 0.8"/>
     </g>
     <g id="line2d_2">
      <defs>
       <path id="me1947d8036" d="M 0 0 
L 0 3.5 
" style="stroke: #000000; stroke-width: 0.8"/>
      </defs>
      <g>
       <use xlink:href="#me1947d8036" x="92.290909" y="320.4" style="stroke: #000000; stroke-width: 0.8"/>
      </g>
     </g>
     <g id="text_1">
      <!-- 1 -->
      <g transform="translate(89.109659 334.998438) scale(0.1 -0.1)">
       <defs>
        <path id="DejaVuSans-31" d="M 794 531 
L 1825 531 
L 1825 4091 
L 703 3866 
L 703 4441 
L 1819 4666 
L 2450 4666 
L 2450 531 
L 3481 531 
L 3481 0 
L 794 0 
L 794 531 
z
" transform="scale(0.015625)"/>
       </defs>
       <use xlink:href="#DejaVuSans-31"/>
      </g>
     </g>
    </g>
    <g id="xtick_2">
     <g id="line2d_3">
      <path d="M 137.381818 320.4 
L 137.381818 43.2 
" clip-path="url(#p970d725cb1)" style="fill: none; stroke-dasharray: 2.96,1.28; stroke-dashoffset: 0; stroke: #b0b0b0; stroke-opacity: 0.6; stroke-width: 0.8"/>
     </g>
     <g id="line2d_4">
      <g>
       <use xlink:href="#me1947d8036" x="137.381818" y="320.4" style="stroke: #000000; stroke-width: 0.8"/>
      </g>
     </g>
     <g id="text_2">
      <!-- 2 -->
      <g transform="translate(134.200568 334.998438) scale(0.1 -0.1)">
       <defs>
        <path id="DejaVuSans-32" d="M 1228 531 
L 3431 531 
L 3431 0 
L 469 0 
L 469 531 
Q 828 903 1448 1529 
Q 2069 2156 2228 2338 
Q 2531 2678 2651 2914 
Q 2772 3150 2772 3378 
Q 2772 3750 2511 3984 
Q 2250 4219 1831 4219 
Q 1534 4219 1204 4116 
Q 875 4013 500 3803 
L 500 4441 
Q 881 4594 1212 4672 
Q 1544 4750 1819 4750 
Q 2544 4750 2975 4387 
Q 3406 4025 3406 3419 
Q 3406 3131 3298 2873 
Q 3191 2616 2906 2266 
Q 2828 2175 2409 1742 
Q 1991 1309 1228 531 
z
" transform="scale(0.015625)"/>
       </defs>
       <use xlink:href="#DejaVuSans-32"/>
      </g>
     </g>
    </g>
    <g id="xtick_3">
     <g id="line2d_5">
      <path d="M 182.472727 320.4 
L 182.472727 43.2 
" clip-path="url(#p970d725cb1)" style="fill: none; stroke-dasharray: 2.96,1.28; stroke-dashoffset: 0; stroke: #b0b0b0; stroke-opacity: 0.6; stroke-width: 0.8"/>
     </g>
     <g id="line2d_6">
      <g>
       <use xlink:href="#me1947d8036" x="182.472727" y="320.4" style="stroke: #000000; stroke-width: 0.8"/>
      </g>
     </g>
     <g id="text_3">
      <!-- 3 -->
      <g transform="translate(179.291477 334.998438) scale(0.1 -0.1)">
       <defs>
        <path id="DejaVuSans-33" d="M 2597 2516 
Q 3050 2419 3304 2112 
Q 3559 1806 3559 1356 
Q 3559 666 3084 287 
Q 2609 -91 1734 -91 
Q 1441 -91 1130 -33 
Q 819 25 488 141 
L 488 750 
Q 750 597 1062 519 
Q 1375 441 1716 441 
Q 2309 441 2620 675 
Q 2931 909 2931 1356 
Q 2931 1769 2642 2001 
Q 2353 2234 1838 2234 
L 1294 2234 
L 1294 2753 
L 1863 2753 
Q 2328 2753 2575 2939 
Q 2822 3125 2822 3475 
Q 2822 3834 2567 4026 
Q 2313 4219 1838 4219 
Q 1578 4219 1281 4162 
Q 984 4106 628 3988 
L 628 4550 
Q 988 4650 1302 4700 
Q 1616 4750 1894 4750 
Q 2613 4750 3031 4423 
Q 3450 4097 3450 3541 
Q 3450 3153 3228 2886 
Q 3006 2619 2597 2516 
z
" transform="scale(0.015625)"/>
       </defs>
       <use xlink:href="#DejaVuSans-33"/>
      </g>
     </g>
    </g>
    <g id="xtick_4">
     <g id="line2d_7">
      <path d="M 227.563636 320.4 
L 227.563636 43.2 
" clip-path="url(#p970d725cb1)" style="fill: none; stroke-dasharray: 2.96,1.28; stroke-dashoffset: 0; stroke: #b0b0b0; stroke-opacity: 0.6; stroke-width: 0.8"/>
     </g>
     <g id="line2d_8">
      <g>
       <use xlink:href="#me1947d8036" x="227.563636" y="320.4" style="stroke: #000000; stroke-width: 0.8"/>
      </g>
     </g>
     <g id="text_4">
      <!-- 4 -->
      <g transform="translate(224.382386 334.998438) scale(0.1 -0.1)">
       <defs>
        <path id="DejaVuSans-34" d="M 2419 4116 
L 825 1625 
L 2419 1625 
L 2419 4116 
z
M 2253 4666 
L 3047 4666 
L 3047 1625 
L 3713 1625 
L 3713 1100 
L 3047 1100 
L 3047 0 
L 2419 0 
L 2419 1100 
L 313 1100 
L 313 1709 
L 2253 4666 
z
" transform="scale(0.015625)"/>
       </defs>
       <use xlink:href="#DejaVuSans-34"/>
      </g>
     </g>
    </g>
    <g id="xtick_5">
     <g id="line2d_9">
      <path d="M 272.654545 320.4 
L 272.654545 43.2 
" clip-path="url(#p970d725cb1)" style="fill: none; stroke-dasharray: 2.96,1.28; stroke-dashoffset: 0; stroke: #b0b0b0; stroke-opacity: 0.6; stroke-width: 0.8"/>
     </g>
     <g id="line2d_10">
      <g>
       <use xlink:href="#me1947d8036" x="272.654545" y="320.4" style="stroke: #000000; stroke-width: 0.8"/>
      </g>
     </g>
     <g id="text_5">
      <!-- 5 -->
      <g transform="translate(269.473295 334.998438) scale(0.1 -0.1)">
       <defs>
        <path id="DejaVuSans-35" d="M 691 4666 
L 3169 4666 
L 3169 4134 
L 1269 4134 
L 1269 2991 
Q 1406 3038 1543 3061 
Q 1681 3084 1819 3084 
Q 2600 3084 3056 2656 
Q 3513 2228 3513 1497 
Q 3513 744 3044 326 
Q 2575 -91 1722 -91 
Q 1428 -91 1123 -41 
Q 819 9 494 109 
L 494 744 
Q 775 591 1075 516 
Q 1375 441 1709 441 
Q 2250 441 2565 725 
Q 2881 1009 2881 1497 
Q 2881 1984 2565 2268 
Q 2250 2553 1709 2553 
Q 1456 2553 1204 2497 
Q 953 2441 691 2322 
L 691 4666 
z
" transform="scale(0.015625)"/>
       </defs>
       <use xlink:href="#DejaVuSans-35"/>
      </g>
     </g>
    </g>
    <g id="xtick_6">
     <g id="line2d_11">
      <path d="M 317.745455 320.4 
L 317.745455 43.2 
" clip-path="url(#p970d725cb1)" style="fill: none; stroke-dasharray: 2.96,1.28; stroke-dashoffset: 0; stroke: #b0b0b0; stroke-opacity: 0.6; stroke-width: 0.8"/>
     </g>
     <g id="line2d_12">
      <g>
       <use xlink:href="#me1947d8036" x="317.745455" y="320.4" style="stroke: #000000; stroke-width: 0.8"/>
      </g>
     </g>
     <g id="text_6">
      <!-- 6 -->
      <g transform="translate(314.564205 334.998438) scale(0.1 -0.1)">
       <defs>
        <path id="DejaVuSans-36" d="M 2113 2584 
Q 1688 2584 1439 2293 
Q 1191 2003 1191 1497 
Q 1191 994 1439 701 
Q 1688 409 2113 409 
Q 2538 409 2786 701 
Q 3034 994 3034 1497 
Q 3034 2003 2786 2293 
Q 2538 2584 2113 2584 
z
M 3366 4563 
L 3366 3988 
Q 3128 4100 2886 4159 
Q 2644 4219 2406 4219 
Q 1781 4219 1451 3797 
Q 1122 3375 1075 2522 
Q 1259 2794 1537 2939 
Q 1816 3084 2150 3084 
Q 2853 3084 3261 2657 
Q 3669 2231 3669 1497 
Q 3669 778 3244 343 
Q 2819 -91 2113 -91 
Q 1303 -91 875 529 
Q 447 1150 447 2328 
Q 447 3434 972 4092 
Q 1497 4750 2381 4750 
Q 2619 4750 2861 4703 
Q 3103 4656 3366 4563 
z
" transform="scale(0.015625)"/>
       </defs>
       <use xlink:href="#DejaVuSans-36"/>
      </g>
     </g>
    </g>
    <g id="xtick_7">
     <g id="line2d_13">
      <path d="M 362.836364 320.4 
L 362.836364 43.2 
" clip-path="url(#p970d725cb1)" style="fill: none; stroke-dasharray: 2.96,1.28; stroke-dashoffset: 0; stroke: #b0b0b0; stroke-opacity: 0.6; stroke-width: 0.8"/>
     </g>
     <g id="line2d_14">
      <g>
       <use xlink:href="#me1947d8036" x="362.836364" y="320.4" style="stroke: #000000; stroke-width: 0.8"/>
      </g>
     </g>
     <g id="text_7">
      <!-- 7 -->
      <g transform="translate(359.655114 334.998438) scale(0.1 -0.1)">
       <defs>
        <path id="DejaVuSans-37" d="M 525 4666 
L 3525 4666 
L 3525 4397 
L 1831 0 
L 1172 0 
L 2766 4134 
L 525 4134 
L 525 4666 
z
" transform="scale(0.015625)"/>
       </defs>
       <use xlink:href="#DejaVuSans-37"/>
      </g>
     </g>
    </g>
    <g id="xtick_8">
     <g id="line2d_15">
      <path d="M 407.927273 320.4 
L 407.927273 43.2 
" clip-path="url(#p970d725cb1)" style="fill: none; stroke-dasharray: 2.96,1.28; stroke-dashoffset: 0; stroke: #b0b0b0; stroke-opacity: 0.6; stroke-width: 0.8"/>
     </g>
     <g id="line2d_16">
      <g>
       <use xlink:href="#me1947d8036" x="407.927273" y="320.4" style="stroke: #000000; stroke-width: 0.8"/>
      </g>
     </g>
     <g id="text_8">
      <!-- 8 -->
      <g transform="translate(404.746023 334.998438) scale(0.1 -0.1)">
       <defs>
        <path id="DejaVuSans-38" d="M 2034 2216 
Q 1584 2216 1326 1975 
Q 1069 1734 1069 1313 
Q 1069 891 1326 650 
Q 1584 409 2034 409 
Q 2484 409 2743 651 
Q 3003 894 3003 1313 
Q 3003 1734 2745 1975 
Q 2488 2216 2034 2216 
z
M 1403 2484 
Q 997 2584 770 2862 
Q 544 3141 544 3541 
Q 544 4100 942 4425 
Q 1341 4750 2034 4750 
Q 2731 4750 3128 4425 
Q 3525 4100 3525 3541 
Q 3525 3141 3298 2862 
Q 3072 2584 2669 2484 
Q 3125 2378 3379 2068 
Q 3634 1759 3634 1313 
Q 3634 634 3220 271 
Q 2806 -91 2034 -91 
Q 1263 -91 848 271 
Q 434 634 434 1313 
Q 434 1759 690 2068 
Q 947 2378 1403 2484 
z
M 1172 3481 
Q 1172 3119 1398 2916 
Q 1625 2713 2034 2713 
Q 2441 2713 2670 2916 
Q 2900 3119 2900 3481 
Q 2900 3844 2670 4047 
Q 2441 4250 2034 4250 
Q 1625 4250 1398 4047 
Q 1172 3844 1172 3481 
z
" transform="scale(0.015625)"/>
       </defs>
       <use xlink:href="#DejaVuSans-38"/>
      </g>
     </g>
    </g>
    <g id="xtick_9">
     <g id="line2d_17">
      <path d="M 453.018182 320.4 
L 453.018182 43.2 
" clip-path="url(#p970d725cb1)" style="fill: none; stroke-dasharray: 2.96,1.28; stroke-dashoffset: 0; stroke: #b0b0b0; stroke-opacity: 0.6; stroke-width: 0.8"/>
     </g>
     <g id="line2d_18">
      <g>
       <use xlink:href="#me1947d8036" x="453.018182" y="320.4" style="stroke: #000000; stroke-width: 0.8"/>
      </g>
     </g>
     <g id="text_9">
      <!-- 9 -->
      <g transform="translate(449.836932 334.998438) scale(0.1 -0.1)">
       <defs>
        <path id="DejaVuSans-39" d="M 703 97 
L 703 672 
Q 941 559 1184 500 
Q 1428 441 1663 441 
Q 2288 441 2617 861 
Q 2947 1281 2994 2138 
Q 2813 1869 2534 1725 
Q 2256 1581 1919 1581 
Q 1219 1581 811 2004 
Q 403 2428 403 3163 
Q 403 3881 828 4315 
Q 1253 4750 1959 4750 
Q 2769 4750 3195 4129 
Q 3622 3509 3622 2328 
Q 3622 1225 3098 567 
Q 2575 -91 1691 -91 
Q 1453 -91 1209 -44 
Q 966 3 703 97 
z
M 1959 2075 
Q 2384 2075 2632 2365 
Q 2881 2656 2881 3163 
Q 2881 3666 2632 3958 
Q 2384 4250 1959 4250 
Q 1534 4250 1286 3958 
Q 1038 3666 1038 3163 
Q 1038 2656 1286 2365 
Q 1534 2075 1959 2075 
z
" transform="scale(0.015625)"/>
       </defs>
       <use xlink:href="#DejaVuSans-39"/>
      </g>
     </g>
    </g>
    <g id="xtick_10">
     <g id="line2d_19">
      <path d="M 498.109091 320.4 
L 498.109091 43.2 
" clip-path="url(#p970d725cb1)" style="fill: none; stroke-dasharray: 2.96,1.28; stroke-dashoffset: 0; stroke: #b0b0b0; stroke-opacity: 0.6; stroke-width: 0.8"/>
     </g>
     <g id="line2d_20">
      <g>
       <use xlink:href="#me1947d8036" x="498.109091" y="320.4" style="stroke: #000000; stroke-width: 0.8"/>
      </g>
     </g>
     <g id="text_10">
      <!-- 10 -->
      <g transform="translate(491.746591 334.998438) scale(0.1 -0.1)">
       <defs>
        <path id="DejaVuSans-30" d="M 2034 4250 
Q 1547 4250 1301 3770 
Q 1056 3291 1056 2328 
Q 1056 1369 1301 889 
Q 1547 409 2034 409 
Q 2525 409 2770 889 
Q 3016 1369 3016 2328 
Q 3016 3291 2770 3770 
Q 2525 4250 2034 4250 
z
M 2034 4750 
Q 2819 4750 3233 4129 
Q 3647 3509 3647 2328 
Q 3647 1150 3233 529 
Q 2819 -91 2034 -91 
Q 1250 -91 836 529 
Q 422 1150 422 2328 
Q 422 3509 836 4129 
Q 1250 4750 2034 4750 
z
" transform="scale(0.015625)"/>
       </defs>
       <use xlink:href="#DejaVuSans-31"/>
       <use xlink:href="#DejaVuSans-30" transform="translate(63.623047 0)"/>
      </g>
     </g>
    </g>
    <g id="text_11">
     <!-- Epoch -->
     <g transform="translate(279.889062 348.676562) scale(0.1 -0.1)">
      <defs>
       <path id="DejaVuSans-45" d="M 628 4666 
L 3578 4666 
L 3578 4134 
L 1259 4134 
L 1259 2753 
L 3481 2753 
L 3481 2222 
L 1259 2222 
L 1259 531 
L 3634 531 
L 3634 0 
L 628 0 
L 628 4666 
z
" transform="scale(0.015625)"/>
       <path id="DejaVuSans-70" d="M 1159 525 
L 1159 -1331 
L 581 -1331 
L 581 3500 
L 1159 3500 
L 1159 2969 
Q 1341 3281 1617 3432 
Q 1894 3584 2278 3584 
Q 2916 3584 3314 3078 
Q 3713 2572 3713 1747 
Q 3713 922 3314 415 
Q 2916 -91 2278 -91 
Q 1894 -91 1617 61 
Q 1341 213 1159 525 
z
M 3116 1747 
Q 3116 2381 2855 2742 
Q 2594 3103 2138 3103 
Q 1681 3103 1420 2742 
Q 1159 2381 1159 1747 
Q 1159 1113 1420 752 
Q 1681 391 2138 391 
Q 2594 391 2855 752 
Q 3116 1113 3116 1747 
z
" transform="scale(0.015625)"/>
       <path id="DejaVuSans-6f" d="M 1959 3097 
Q 1497 3097 1228 2736 
Q 959 2375 959 1747 
Q 959 1119 1226 758 
Q 1494 397 1959 397 
Q 2419 397 2687 759 
Q 2956 1122 2956 1747 
Q 2956 2369 2687 2733 
Q 2419 3097 1959 3097 
z
M 1959 3584 
Q 2709 3584 3137 3096 
Q 3566 2609 3566 1747 
Q 3566 888 3137 398 
Q 2709 -91 1959 -91 
Q 1206 -91 779 398 
Q 353 888 353 1747 
Q 353 2609 779 3096 
Q 1206 3584 1959 3584 
z
" transform="scale(0.015625)"/>
       <path id="DejaVuSans-63" d="M 3122 3366 
L 3122 2828 
Q 2878 2963 2633 3030 
Q 2388 3097 2138 3097 
Q 1578 3097 1268 2742 
Q 959 2388 959 1747 
Q 959 1106 1268 751 
Q 1578 397 2138 397 
Q 2388 397 2633 464 
Q 2878 531 3122 666 
L 3122 134 
Q 2881 22 2623 -34 
Q 2366 -91 2075 -91 
Q 1284 -91 818 406 
Q 353 903 353 1747 
Q 353 2603 823 3093 
Q 1294 3584 2113 3584 
Q 2378 3584 2631 3529 
Q 2884 3475 3122 3366 
z
" transform="scale(0.015625)"/>
       <path id="DejaVuSans-68" d="M 3513 2113 
L 3513 0 
L 2938 0 
L 2938 2094 
Q 2938 2591 2744 2837 
Q 2550 3084 2163 3084 
Q 1697 3084 1428 2787 
Q 1159 2491 1159 1978 
L 1159 0 
L 581 0 
L 581 4863 
L 1159 4863 
L 1159 2956 
Q 1366 3272 1645 3428 
Q 1925 3584 2291 3584 
Q 2894 3584 3203 3211 
Q 3513 2838 3513 2113 
z
" transform="scale(0.015625)"/>
      </defs>
      <use xlink:href="#DejaVuSans-45"/>
      <use xlink:href="#DejaVuSans-70" transform="translate(63.183594 0)"/>
      <use xlink:href="#DejaVuSans-6f" transform="translate(126.660156 0)"/>
      <use xlink:href="#DejaVuSans-63" transform="translate(187.841797 0)"/>
      <use xlink:href="#DejaVuSans-68" transform="translate(242.822266 0)"/>
     </g>
    </g>
   </g>
   <g id="matplotlib.axis_2">
    <g id="ytick_1">
     <g id="line2d_21">
      <path d="M 72 320.4 
L 518.4 320.4 
" clip-path="url(#p970d725cb1)" style="fill: none; stroke-dasharray: 2.96,1.28; stroke-dashoffset: 0; stroke: #b0b0b0; stroke-opacity: 0.6; stroke-width: 0.8"/>
     </g>
     <g id="line2d_22">
      <defs>
       <path id="md5d778c89b" d="M 0 0 
L -3.5 0 
" style="stroke: #000000; stroke-width: 0.8"/>
      </defs>
      <g>
       <use xlink:href="#md5d778c89b" x="72" y="320.4" style="stroke: #000000; stroke-width: 0.8"/>
      </g>
     </g>
     <g id="text_12">
      <!-- 82 -->
      <g transform="translate(52.275 324.199219) scale(0.1 -0.1)">
       <use xlink:href="#DejaVuSans-38"/>
       <use xlink:href="#DejaVuSans-32" transform="translate(63.623047 0)"/>
      </g>
     </g>
    </g>
    <g id="ytick_2">
     <g id="line2d_23">
      <path d="M 72 287.575844 
L 518.4 287.575844 
" clip-path="url(#p970d725cb1)" style="fill: none; stroke-dasharray: 2.96,1.28; stroke-dashoffset: 0; stroke: #b0b0b0; stroke-opacity: 0.6; stroke-width: 0.8"/>
     </g>
     <g id="line2d_24">
      <g>
       <use xlink:href="#md5d778c89b" x="72" y="287.575844" style="stroke: #000000; stroke-width: 0.8"/>
      </g>
     </g>
     <g id="text_13">
      <!-- 84 -->
      <g transform="translate(52.275 291.375062) scale(0.1 -0.1)">
       <use xlink:href="#DejaVuSans-38"/>
       <use xlink:href="#DejaVuSans-34" transform="translate(63.623047 0)"/>
      </g>
     </g>
    </g>
    <g id="ytick_3">
     <g id="line2d_25">
      <path d="M 72 254.751687 
L 518.4 254.751687 
" clip-path="url(#p970d725cb1)" style="fill: none; stroke-dasharray: 2.96,1.28; stroke-dashoffset: 0; stroke: #b0b0b0; stroke-opacity: 0.6; stroke-width: 0.8"/>
     </g>
     <g id="line2d_26">
      <g>
       <use xlink:href="#md5d778c89b" x="72" y="254.751687" style="stroke: #000000; stroke-width: 0.8"/>
      </g>
     </g>
     <g id="text_14">
      <!-- 86 -->
      <g transform="translate(52.275 258.550906) scale(0.1 -0.1)">
       <use xlink:href="#DejaVuSans-38"/>
       <use xlink:href="#DejaVuSans-36" transform="translate(63.623047 0)"/>
      </g>
     </g>
    </g>
    <g id="ytick_4">
     <g id="line2d_27">
      <path d="M 72 221.927531 
L 518.4 221.927531 
" clip-path="url(#p970d725cb1)" style="fill: none; stroke-dasharray: 2.96,1.28; stroke-dashoffset: 0; stroke: #b0b0b0; stroke-opacity: 0.6; stroke-width: 0.8"/>
     </g>
     <g id="line2d_28">
      <g>
       <use xlink:href="#md5d778c89b" x="72" y="221.927531" style="stroke: #000000; stroke-width: 0.8"/>
      </g>
     </g>
     <g id="text_15">
      <!-- 88 -->
      <g transform="translate(52.275 225.72675) scale(0.1 -0.1)">
       <use xlink:href="#DejaVuSans-38"/>
       <use xlink:href="#DejaVuSans-38" transform="translate(63.623047 0)"/>
      </g>
     </g>
    </g>
    <g id="ytick_5">
     <g id="line2d_29">
      <path d="M 72 189.103375 
L 518.4 189.103375 
" clip-path="url(#p970d725cb1)" style="fill: none; stroke-dasharray: 2.96,1.28; stroke-dashoffset: 0; stroke: #b0b0b0; stroke-opacity: 0.6; stroke-width: 0.8"/>
     </g>
     <g id="line2d_30">
      <g>
       <use xlink:href="#md5d778c89b" x="72" y="189.103375" style="stroke: #000000; stroke-width: 0.8"/>
      </g>
     </g>
     <g id="text_16">
      <!-- 90 -->
      <g transform="translate(52.275 192.902594) scale(0.1 -0.1)">
       <use xlink:href="#DejaVuSans-39"/>
       <use xlink:href="#DejaVuSans-30" transform="translate(63.623047 0)"/>
      </g>
     </g>
    </g>
    <g id="ytick_6">
     <g id="line2d_31">
      <path d="M 72 156.279218 
L 518.4 156.279218 
" clip-path="url(#p970d725cb1)" style="fill: none; stroke-dasharray: 2.96,1.28; stroke-dashoffset: 0; stroke: #b0b0b0; stroke-opacity: 0.6; stroke-width: 0.8"/>
     </g>
     <g id="line2d_32">
      <g>
       <use xlink:href="#md5d778c89b" x="72" y="156.279218" style="stroke: #000000; stroke-width: 0.8"/>
      </g>
     </g>
     <g id="text_17">
      <!-- 92 -->
      <g transform="translate(52.275 160.078437) scale(0.1 -0.1)">
       <use xlink:href="#DejaVuSans-39"/>
       <use xlink:href="#DejaVuSans-32" transform="translate(63.623047 0)"/>
      </g>
     </g>
    </g>
    <g id="ytick_7">
     <g id="line2d_33">
      <path d="M 72 123.455062 
L 518.4 123.455062 
" clip-path="url(#p970d725cb1)" style="fill: none; stroke-dasharray: 2.96,1.28; stroke-dashoffset: 0; stroke: #b0b0b0; stroke-opacity: 0.6; stroke-width: 0.8"/>
     </g>
     <g id="line2d_34">
      <g>
       <use xlink:href="#md5d778c89b" x="72" y="123.455062" style="stroke: #000000; stroke-width: 0.8"/>
      </g>
     </g>
     <g id="text_18">
      <!-- 94 -->
      <g transform="translate(52.275 127.254281) scale(0.1 -0.1)">
       <use xlink:href="#DejaVuSans-39"/>
       <use xlink:href="#DejaVuSans-34" transform="translate(63.623047 0)"/>
      </g>
     </g>
    </g>
    <g id="ytick_8">
     <g id="line2d_35">
      <path d="M 72 90.630906 
L 518.4 90.630906 
" clip-path="url(#p970d725cb1)" style="fill: none; stroke-dasharray: 2.96,1.28; stroke-dashoffset: 0; stroke: #b0b0b0; stroke-opacity: 0.6; stroke-width: 0.8"/>
     </g>
     <g id="line2d_36">
      <g>
       <use xlink:href="#md5d778c89b" x="72" y="90.630906" style="stroke: #000000; stroke-width: 0.8"/>
      </g>
     </g>
     <g id="text_19">
      <!-- 96 -->
      <g transform="translate(52.275 94.430125) scale(0.1 -0.1)">
       <use xlink:href="#DejaVuSans-39"/>
       <use xlink:href="#DejaVuSans-36" transform="translate(63.623047 0)"/>
      </g>
     </g>
    </g>
    <g id="ytick_9">
     <g id="line2d_37">
      <path d="M 72 57.80675 
L 518.4 57.80675 
" clip-path="url(#p970d725cb1)" style="fill: none; stroke-dasharray: 2.96,1.28; stroke-dashoffset: 0; stroke: #b0b0b0; stroke-opacity: 0.6; stroke-width: 0.8"/>
     </g>
     <g id="line2d_38">
      <g>
       <use xlink:href="#md5d778c89b" x="72" y="57.80675" style="stroke: #000000; stroke-width: 0.8"/>
      </g>
     </g>
     <g id="text_20">
      <!-- 98 -->
      <g transform="translate(52.275 61.605968) scale(0.1 -0.1)">
       <use xlink:href="#DejaVuSans-39"/>
       <use xlink:href="#DejaVuSans-38" transform="translate(63.623047 0)"/>
      </g>
     </g>
    </g>
    <g id="text_21">
     <!-- Accuracy (%) -->
     <g transform="translate(46.195312 214.869531) rotate(-90) scale(0.1 -0.1)">
      <defs>
       <path id="DejaVuSans-41" d="M 2188 4044 
L 1331 1722 
L 3047 1722 
L 2188 4044 
z
M 1831 4666 
L 2547 4666 
L 4325 0 
L 3669 0 
L 3244 1197 
L 1141 1197 
L 716 0 
L 50 0 
L 1831 4666 
z
" transform="scale(0.015625)"/>
       <path id="DejaVuSans-75" d="M 544 1381 
L 544 3500 
L 1119 3500 
L 1119 1403 
Q 1119 906 1312 657 
Q 1506 409 1894 409 
Q 2359 409 2629 706 
Q 2900 1003 2900 1516 
L 2900 3500 
L 3475 3500 
L 3475 0 
L 2900 0 
L 2900 538 
Q 2691 219 2414 64 
Q 2138 -91 1772 -91 
Q 1169 -91 856 284 
Q 544 659 544 1381 
z
M 1991 3584 
L 1991 3584 
z
" transform="scale(0.015625)"/>
       <path id="DejaVuSans-72" d="M 2631 2963 
Q 2534 3019 2420 3045 
Q 2306 3072 2169 3072 
Q 1681 3072 1420 2755 
Q 1159 2438 1159 1844 
L 1159 0 
L 581 0 
L 581 3500 
L 1159 3500 
L 1159 2956 
Q 1341 3275 1631 3429 
Q 1922 3584 2338 3584 
Q 2397 3584 2469 3576 
Q 2541 3569 2628 3553 
L 2631 2963 
z
" transform="scale(0.015625)"/>
       <path id="DejaVuSans-61" d="M 2194 1759 
Q 1497 1759 1228 1600 
Q 959 1441 959 1056 
Q 959 750 1161 570 
Q 1363 391 1709 391 
Q 2188 391 2477 730 
Q 2766 1069 2766 1631 
L 2766 1759 
L 2194 1759 
z
M 3341 1997 
L 3341 0 
L 2766 0 
L 2766 531 
Q 2569 213 2275 61 
Q 1981 -91 1556 -91 
Q 1019 -91 701 211 
Q 384 513 384 1019 
Q 384 1609 779 1909 
Q 1175 2209 1959 2209 
L 2766 2209 
L 2766 2266 
Q 2766 2663 2505 2880 
Q 2244 3097 1772 3097 
Q 1472 3097 1187 3025 
Q 903 2953 641 2809 
L 641 3341 
Q 956 3463 1253 3523 
Q 1550 3584 1831 3584 
Q 2591 3584 2966 3190 
Q 3341 2797 3341 1997 
z
" transform="scale(0.015625)"/>
       <path id="DejaVuSans-79" d="M 2059 -325 
Q 1816 -950 1584 -1140 
Q 1353 -1331 966 -1331 
L 506 -1331 
L 506 -850 
L 844 -850 
Q 1081 -850 1212 -737 
Q 1344 -625 1503 -206 
L 1606 56 
L 191 3500 
L 800 3500 
L 1894 763 
L 2988 3500 
L 3597 3500 
L 2059 -325 
z
" transform="scale(0.015625)"/>
       <path id="DejaVuSans-20" transform="scale(0.015625)"/>
       <path id="DejaVuSans-28" d="M 1984 4856 
Q 1566 4138 1362 3434 
Q 1159 2731 1159 2009 
Q 1159 1288 1364 580 
Q 1569 -128 1984 -844 
L 1484 -844 
Q 1016 -109 783 600 
Q 550 1309 550 2009 
Q 550 2706 781 3412 
Q 1013 4119 1484 4856 
L 1984 4856 
z
" transform="scale(0.015625)"/>
       <path id="DejaVuSans-25" d="M 4653 2053 
Q 4381 2053 4226 1822 
Q 4072 1591 4072 1178 
Q 4072 772 4226 539 
Q 4381 306 4653 306 
Q 4919 306 5073 539 
Q 5228 772 5228 1178 
Q 5228 1588 5073 1820 
Q 4919 2053 4653 2053 
z
M 4653 2450 
Q 5147 2450 5437 2106 
Q 5728 1763 5728 1178 
Q 5728 594 5436 251 
Q 5144 -91 4653 -91 
Q 4153 -91 3862 251 
Q 3572 594 3572 1178 
Q 3572 1766 3864 2108 
Q 4156 2450 4653 2450 
z
M 1428 4353 
Q 1159 4353 1004 4120 
Q 850 3888 850 3481 
Q 850 3069 1003 2837 
Q 1156 2606 1428 2606 
Q 1700 2606 1854 2837 
Q 2009 3069 2009 3481 
Q 2009 3884 1853 4118 
Q 1697 4353 1428 4353 
z
M 4250 4750 
L 4750 4750 
L 1831 -91 
L 1331 -91 
L 4250 4750 
z
M 1428 4750 
Q 1922 4750 2215 4408 
Q 2509 4066 2509 3481 
Q 2509 2891 2217 2550 
Q 1925 2209 1428 2209 
Q 931 2209 642 2551 
Q 353 2894 353 3481 
Q 353 4063 643 4406 
Q 934 4750 1428 4750 
z
" transform="scale(0.015625)"/>
       <path id="DejaVuSans-29" d="M 513 4856 
L 1013 4856 
Q 1481 4119 1714 3412 
Q 1947 2706 1947 2009 
Q 1947 1309 1714 600 
Q 1481 -109 1013 -844 
L 513 -844 
Q 928 -128 1133 580 
Q 1338 1288 1338 2009 
Q 1338 2731 1133 3434 
Q 928 4138 513 4856 
z
" transform="scale(0.015625)"/>
      </defs>
      <use xlink:href="#DejaVuSans-41"/>
      <use xlink:href="#DejaVuSans-63" transform="translate(66.658203 0)"/>
      <use xlink:href="#DejaVuSans-63" transform="translate(121.638672 0)"/>
      <use xlink:href="#DejaVuSans-75" transform="translate(176.619141 0)"/>
      <use xlink:href="#DejaVuSans-72" transform="translate(239.998047 0)"/>
      <use xlink:href="#DejaVuSans-61" transform="translate(281.111328 0)"/>
      <use xlink:href="#DejaVuSans-63" transform="translate(342.390625 0)"/>
      <use xlink:href="#DejaVuSans-79" transform="translate(397.371094 0)"/>
      <use xlink:href="#DejaVuSans-20" transform="translate(456.550781 0)"/>
      <use xlink:href="#DejaVuSans-28" transform="translate(488.337891 0)"/>
      <use xlink:href="#DejaVuSans-25" transform="translate(527.351562 0)"/>
      <use xlink:href="#DejaVuSans-29" transform="translate(622.371094 0)"/>
     </g>
    </g>
   </g>
   <g id="line2d_39">
    <path d="M 92.290909 108.848313 
L 498.109091 92.436234 
L 498.109091 92.436234 
" clip-path="url(#p970d725cb1)" style="fill: none; stroke: #1f77b4; stroke-width: 2; stroke-linecap: square"/>
   </g>
   <g id="line2d_40">
    <path d="M 92.290909 238.339609 
L 498.109091 109.668917 
L 498.109091 109.668917 
" clip-path="url(#p970d725cb1)" style="fill: none; stroke: #ff7f0e; stroke-width: 2; stroke-linecap: square"/>
   </g>
   <g id="patch_3">
    <path d="M 72 320.4 
L 72 43.2 
" style="fill: none; stroke: #000000; stroke-width: 0.8; stroke-linejoin: miter; stroke-linecap: square"/>
   </g>
   <g id="patch_4">
    <path d="M 518.4 320.4 
L 518.4 43.2 
" style="fill: none; stroke: #000000; stroke-width: 0.8; stroke-linejoin: miter; stroke-linecap: square"/>
   </g>
   <g id="patch_5">
    <path d="M 72 320.4 
L 518.4 320.4 
" style="fill: none; stroke: #000000; stroke-width: 0.8; stroke-linejoin: miter; stroke-linecap: square"/>
   </g>
   <g id="patch_6">
    <path d="M 72 43.2 
L 518.4 43.2 
" style="fill: none; stroke: #000000; stroke-width: 0.8; stroke-linejoin: miter; stroke-linecap: square"/>
   </g>
   <g id="text_22">
    <!-- Accuracy over Epochs -->
    <g transform="translate(209.265156 37.2) scale(0.14 -0.14)">
     <defs>
      <path id="DejaVuSans-Bold-41" d="M 3419 850 
L 1538 850 
L 1241 0 
L 31 0 
L 1759 4666 
L 3194 4666 
L 4922 0 
L 3713 0 
L 3419 850 
z
M 1838 1716 
L 3116 1716 
L 2478 3572 
L 1838 1716 
z
" transform="scale(0.015625)"/>
      <path id="DejaVuSans-Bold-63" d="M 3366 3391 
L 3366 2478 
Q 3138 2634 2908 2709 
Q 2678 2784 2431 2784 
Q 1963 2784 1702 2511 
Q 1441 2238 1441 1747 
Q 1441 1256 1702 982 
Q 1963 709 2431 709 
Q 2694 709 2930 787 
Q 3166 866 3366 1019 
L 3366 103 
Q 3103 6 2833 -42 
Q 2563 -91 2291 -91 
Q 1344 -91 809 395 
Q 275 881 275 1747 
Q 275 2613 809 3098 
Q 1344 3584 2291 3584 
Q 2566 3584 2833 3536 
Q 3100 3488 3366 3391 
z
" transform="scale(0.015625)"/>
      <path id="DejaVuSans-Bold-75" d="M 500 1363 
L 500 3500 
L 1625 3500 
L 1625 3150 
Q 1625 2866 1622 2436 
Q 1619 2006 1619 1863 
Q 1619 1441 1641 1255 
Q 1663 1069 1716 984 
Q 1784 875 1895 815 
Q 2006 756 2150 756 
Q 2500 756 2700 1025 
Q 2900 1294 2900 1772 
L 2900 3500 
L 4019 3500 
L 4019 0 
L 2900 0 
L 2900 506 
Q 2647 200 2364 54 
Q 2081 -91 1741 -91 
Q 1134 -91 817 281 
Q 500 653 500 1363 
z
" transform="scale(0.015625)"/>
      <path id="DejaVuSans-Bold-72" d="M 3138 2547 
Q 2991 2616 2845 2648 
Q 2700 2681 2553 2681 
Q 2122 2681 1889 2404 
Q 1656 2128 1656 1613 
L 1656 0 
L 538 0 
L 538 3500 
L 1656 3500 
L 1656 2925 
Q 1872 3269 2151 3426 
Q 2431 3584 2822 3584 
Q 2878 3584 2943 3579 
Q 3009 3575 3134 3559 
L 3138 2547 
z
" transform="scale(0.015625)"/>
      <path id="DejaVuSans-Bold-61" d="M 2106 1575 
Q 1756 1575 1579 1456 
Q 1403 1338 1403 1106 
Q 1403 894 1545 773 
Q 1688 653 1941 653 
Q 2256 653 2472 879 
Q 2688 1106 2688 1447 
L 2688 1575 
L 2106 1575 
z
M 3816 1997 
L 3816 0 
L 2688 0 
L 2688 519 
Q 2463 200 2181 54 
Q 1900 -91 1497 -91 
Q 953 -91 614 226 
Q 275 544 275 1050 
Q 275 1666 698 1953 
Q 1122 2241 2028 2241 
L 2688 2241 
L 2688 2328 
Q 2688 2594 2478 2717 
Q 2269 2841 1825 2841 
Q 1466 2841 1156 2769 
Q 847 2697 581 2553 
L 581 3406 
Q 941 3494 1303 3539 
Q 1666 3584 2028 3584 
Q 2975 3584 3395 3211 
Q 3816 2838 3816 1997 
z
" transform="scale(0.015625)"/>
      <path id="DejaVuSans-Bold-79" d="M 78 3500 
L 1197 3500 
L 2138 1125 
L 2938 3500 
L 4056 3500 
L 2584 -331 
Q 2363 -916 2067 -1148 
Q 1772 -1381 1288 -1381 
L 641 -1381 
L 641 -647 
L 991 -647 
Q 1275 -647 1404 -556 
Q 1534 -466 1606 -231 
L 1638 -134 
L 78 3500 
z
" transform="scale(0.015625)"/>
      <path id="DejaVuSans-Bold-20" transform="scale(0.015625)"/>
      <path id="DejaVuSans-Bold-6f" d="M 2203 2784 
Q 1831 2784 1636 2517 
Q 1441 2250 1441 1747 
Q 1441 1244 1636 976 
Q 1831 709 2203 709 
Q 2569 709 2762 976 
Q 2956 1244 2956 1747 
Q 2956 2250 2762 2517 
Q 2569 2784 2203 2784 
z
M 2203 3584 
Q 3106 3584 3614 3096 
Q 4122 2609 4122 1747 
Q 4122 884 3614 396 
Q 3106 -91 2203 -91 
Q 1297 -91 786 396 
Q 275 884 275 1747 
Q 275 2609 786 3096 
Q 1297 3584 2203 3584 
z
" transform="scale(0.015625)"/>
      <path id="DejaVuSans-Bold-76" d="M 97 3500 
L 1216 3500 
L 2088 1081 
L 2956 3500 
L 4078 3500 
L 2700 0 
L 1472 0 
L 97 3500 
z
" transform="scale(0.015625)"/>
      <path id="DejaVuSans-Bold-65" d="M 4031 1759 
L 4031 1441 
L 1416 1441 
Q 1456 1047 1700 850 
Q 1944 653 2381 653 
Q 2734 653 3104 758 
Q 3475 863 3866 1075 
L 3866 213 
Q 3469 63 3072 -14 
Q 2675 -91 2278 -91 
Q 1328 -91 801 392 
Q 275 875 275 1747 
Q 275 2603 792 3093 
Q 1309 3584 2216 3584 
Q 3041 3584 3536 3087 
Q 4031 2591 4031 1759 
z
M 2881 2131 
Q 2881 2450 2695 2645 
Q 2509 2841 2209 2841 
Q 1884 2841 1681 2658 
Q 1478 2475 1428 2131 
L 2881 2131 
z
" transform="scale(0.015625)"/>
      <path id="DejaVuSans-Bold-45" d="M 588 4666 
L 3834 4666 
L 3834 3756 
L 1791 3756 
L 1791 2888 
L 3713 2888 
L 3713 1978 
L 1791 1978 
L 1791 909 
L 3903 909 
L 3903 0 
L 588 0 
L 588 4666 
z
" transform="scale(0.015625)"/>
      <path id="DejaVuSans-Bold-70" d="M 1656 506 
L 1656 -1331 
L 538 -1331 
L 538 3500 
L 1656 3500 
L 1656 2988 
Q 1888 3294 2169 3439 
Q 2450 3584 2816 3584 
Q 3463 3584 3878 3070 
Q 4294 2556 4294 1747 
Q 4294 938 3878 423 
Q 3463 -91 2816 -91 
Q 2450 -91 2169 54 
Q 1888 200 1656 506 
z
M 2400 2772 
Q 2041 2772 1848 2508 
Q 1656 2244 1656 1747 
Q 1656 1250 1848 986 
Q 2041 722 2400 722 
Q 2759 722 2948 984 
Q 3138 1247 3138 1747 
Q 3138 2247 2948 2509 
Q 2759 2772 2400 2772 
z
" transform="scale(0.015625)"/>
      <path id="DejaVuSans-Bold-68" d="M 4056 2131 
L 4056 0 
L 2931 0 
L 2931 347 
L 2931 1625 
Q 2931 2084 2911 2256 
Q 2891 2428 2841 2509 
Q 2775 2619 2662 2680 
Q 2550 2741 2406 2741 
Q 2056 2741 1856 2470 
Q 1656 2200 1656 1722 
L 1656 0 
L 538 0 
L 538 4863 
L 1656 4863 
L 1656 2988 
Q 1909 3294 2193 3439 
Q 2478 3584 2822 3584 
Q 3428 3584 3742 3212 
Q 4056 2841 4056 2131 
z
" transform="scale(0.015625)"/>
      <path id="DejaVuSans-Bold-73" d="M 3272 3391 
L 3272 2541 
Q 2913 2691 2578 2766 
Q 2244 2841 1947 2841 
Q 1628 2841 1473 2761 
Q 1319 2681 1319 2516 
Q 1319 2381 1436 2309 
Q 1553 2238 1856 2203 
L 2053 2175 
Q 2913 2066 3209 1816 
Q 3506 1566 3506 1031 
Q 3506 472 3093 190 
Q 2681 -91 1863 -91 
Q 1516 -91 1145 -36 
Q 775 19 384 128 
L 384 978 
Q 719 816 1070 734 
Q 1422 653 1784 653 
Q 2113 653 2278 743 
Q 2444 834 2444 1013 
Q 2444 1163 2330 1236 
Q 2216 1309 1875 1350 
L 1678 1375 
Q 931 1469 631 1722 
Q 331 1975 331 2491 
Q 331 3047 712 3315 
Q 1094 3584 1881 3584 
Q 2191 3584 2531 3537 
Q 2872 3491 3272 3391 
z
" transform="scale(0.015625)"/>
     </defs>
     <use xlink:href="#DejaVuSans-Bold-41"/>
     <use xlink:href="#DejaVuSans-Bold-63" transform="translate(77.392578 0)"/>
     <use xlink:href="#DejaVuSans-Bold-63" transform="translate(136.669922 0)"/>
     <use xlink:href="#DejaVuSans-Bold-75" transform="translate(195.947266 0)"/>
     <use xlink:href="#DejaVuSans-Bold-72" transform="translate(267.138672 0)"/>
     <use xlink:href="#DejaVuSans-Bold-61" transform="translate(316.455078 0)"/>
     <use xlink:href="#DejaVuSans-Bold-63" transform="translate(383.935547 0)"/>
     <use xlink:href="#DejaVuSans-Bold-79" transform="translate(443.212891 0)"/>
     <use xlink:href="#DejaVuSans-Bold-20" transform="translate(508.398438 0)"/>
     <use xlink:href="#DejaVuSans-Bold-6f" transform="translate(543.212891 0)"/>
     <use xlink:href="#DejaVuSans-Bold-76" transform="translate(611.914062 0)"/>
     <use xlink:href="#DejaVuSans-Bold-65" transform="translate(677.099609 0)"/>
     <use xlink:href="#DejaVuSans-Bold-72" transform="translate(744.921875 0)"/>
     <use xlink:href="#DejaVuSans-Bold-20" transform="translate(794.238281 0)"/>
     <use xlink:href="#DejaVuSans-Bold-45" transform="translate(829.052734 0)"/>
     <use xlink:href="#DejaVuSans-Bold-70" transform="translate(897.363281 0)"/>
     <use xlink:href="#DejaVuSans-Bold-6f" transform="translate(968.945312 0)"/>
     <use xlink:href="#DejaVuSans-Bold-63" transform="translate(1037.646484 0)"/>
     <use xlink:href="#DejaVuSans-Bold-68" transform="translate(1096.923828 0)"/>
     <use xlink:href="#DejaVuSans-Bold-73" transform="translate(1168.115234 0)"/>
    </g>
   </g>
   <g id="legend_1">
    <g id="patch_7">
     <path d="M 381.184375 80.55625 
L 511.4 80.55625 
Q 513.4 80.55625 513.4 78.55625 
L 513.4 50.2 
Q 513.4 48.2 511.4 48.2 
L 381.184375 48.2 
Q 379.184375 48.2 379.184375 50.2 
L 379.184375 78.55625 
Q 379.184375 80.55625 381.184375 80.55625 
z
" style="fill: #ffffff; opacity: 0.8; stroke: #cccccc; stroke-linejoin: miter"/>
    </g>
    <g id="line2d_41">
     <path d="M 383.184375 56.298437 
L 393.184375 56.298437 
L 403.184375 56.298437 
" style="fill: none; stroke: #1f77b4; stroke-width: 2; stroke-linecap: square"/>
    </g>
    <g id="text_23">
     <!-- Training Accuracy -->
     <g transform="translate(411.184375 59.798437) scale(0.1 -0.1)">
      <defs>
       <path id="DejaVuSans-54" d="M -19 4666 
L 3928 4666 
L 3928 4134 
L 2272 4134 
L 2272 0 
L 1638 0 
L 1638 4134 
L -19 4134 
L -19 4666 
z
" transform="scale(0.015625)"/>
       <path id="DejaVuSans-69" d="M 603 3500 
L 1178 3500 
L 1178 0 
L 603 0 
L 603 3500 
z
M 603 4863 
L 1178 4863 
L 1178 4134 
L 603 4134 
L 603 4863 
z
" transform="scale(0.015625)"/>
       <path id="DejaVuSans-6e" d="M 3513 2113 
L 3513 0 
L 2938 0 
L 2938 2094 
Q 2938 2591 2744 2837 
Q 2550 3084 2163 3084 
Q 1697 3084 1428 2787 
Q 1159 2491 1159 1978 
L 1159 0 
L 581 0 
L 581 3500 
L 1159 3500 
L 1159 2956 
Q 1366 3272 1645 3428 
Q 1925 3584 2291 3584 
Q 2894 3584 3203 3211 
Q 3513 2838 3513 2113 
z
" transform="scale(0.015625)"/>
       <path id="DejaVuSans-67" d="M 2906 1791 
Q 2906 2416 2648 2759 
Q 2391 3103 1925 3103 
Q 1463 3103 1205 2759 
Q 947 2416 947 1791 
Q 947 1169 1205 825 
Q 1463 481 1925 481 
Q 2391 481 2648 825 
Q 2906 1169 2906 1791 
z
M 3481 434 
Q 3481 -459 3084 -895 
Q 2688 -1331 1869 -1331 
Q 1566 -1331 1297 -1286 
Q 1028 -1241 775 -1147 
L 775 -588 
Q 1028 -725 1275 -790 
Q 1522 -856 1778 -856 
Q 2344 -856 2625 -561 
Q 2906 -266 2906 331 
L 2906 616 
Q 2728 306 2450 153 
Q 2172 0 1784 0 
Q 1141 0 747 490 
Q 353 981 353 1791 
Q 353 2603 747 3093 
Q 1141 3584 1784 3584 
Q 2172 3584 2450 3431 
Q 2728 3278 2906 2969 
L 2906 3500 
L 3481 3500 
L 3481 434 
z
" transform="scale(0.015625)"/>
      </defs>
      <use xlink:href="#DejaVuSans-54"/>
      <use xlink:href="#DejaVuSans-72" transform="translate(46.333984 0)"/>
      <use xlink:href="#DejaVuSans-61" transform="translate(87.447266 0)"/>
      <use xlink:href="#DejaVuSans-69" transform="translate(148.726562 0)"/>
      <use xlink:href="#DejaVuSans-6e" transform="translate(176.509766 0)"/>
      <use xlink:href="#DejaVuSans-69" transform="translate(239.888672 0)"/>
      <use xlink:href="#DejaVuSans-6e" transform="translate(267.671875 0)"/>
      <use xlink:href="#DejaVuSans-67" transform="translate(331.050781 0)"/>
      <use xlink:href="#DejaVuSans-20" transform="translate(394.527344 0)"/>
      <use xlink:href="#DejaVuSans-41" transform="translate(426.314453 0)"/>
      <use xlink:href="#DejaVuSans-63" transform="translate(492.972656 0)"/>
      <use xlink:href="#DejaVuSans-63" transform="translate(547.953125 0)"/>
      <use xlink:href="#DejaVuSans-75" transform="translate(602.933594 0)"/>
      <use xlink:href="#DejaVuSans-72" transform="translate(666.3125 0)"/>
      <use xlink:href="#DejaVuSans-61" transform="translate(707.425781 0)"/>
      <use xlink:href="#DejaVuSans-63" transform="translate(768.705078 0)"/>
      <use xlink:href="#DejaVuSans-79" transform="translate(823.685547 0)"/>
     </g>
    </g>
    <g id="line2d_42">
     <path d="M 383.184375 70.976562 
L 393.184375 70.976562 
L 403.184375 70.976562 
" style="fill: none; stroke: #ff7f0e; stroke-width: 2; stroke-linecap: square"/>
    </g>
    <g id="text_24">
     <!-- Validation Accuracy -->
     <g transform="translate(411.184375 74.476562) scale(0.1 -0.1)">
      <defs>
       <path id="DejaVuSans-56" d="M 1831 0 
L 50 4666 
L 709 4666 
L 2188 738 
L 3669 4666 
L 4325 4666 
L 2547 0 
L 1831 0 
z
" transform="scale(0.015625)"/>
       <path id="DejaVuSans-6c" d="M 603 4863 
L 1178 4863 
L 1178 0 
L 603 0 
L 603 4863 
z
" transform="scale(0.015625)"/>
       <path id="DejaVuSans-64" d="M 2906 2969 
L 2906 4863 
L 3481 4863 
L 3481 0 
L 2906 0 
L 2906 525 
Q 2725 213 2448 61 
Q 2172 -91 1784 -91 
Q 1150 -91 751 415 
Q 353 922 353 1747 
Q 353 2572 751 3078 
Q 1150 3584 1784 3584 
Q 2172 3584 2448 3432 
Q 2725 3281 2906 2969 
z
M 947 1747 
Q 947 1113 1208 752 
Q 1469 391 1925 391 
Q 2381 391 2643 752 
Q 2906 1113 2906 1747 
Q 2906 2381 2643 2742 
Q 2381 3103 1925 3103 
Q 1469 3103 1208 2742 
Q 947 2381 947 1747 
z
" transform="scale(0.015625)"/>
       <path id="DejaVuSans-74" d="M 1172 4494 
L 1172 3500 
L 2356 3500 
L 2356 3053 
L 1172 3053 
L 1172 1153 
Q 1172 725 1289 603 
Q 1406 481 1766 481 
L 2356 481 
L 2356 0 
L 1766 0 
Q 1100 0 847 248 
Q 594 497 594 1153 
L 594 3053 
L 172 3053 
L 172 3500 
L 594 3500 
L 594 4494 
L 1172 4494 
z
" transform="scale(0.015625)"/>
      </defs>
      <use xlink:href="#DejaVuSans-56"/>
      <use xlink:href="#DejaVuSans-61" transform="translate(60.658203 0)"/>
      <use xlink:href="#DejaVuSans-6c" transform="translate(121.9375 0)"/>
      <use xlink:href="#DejaVuSans-69" transform="translate(149.720703 0)"/>
      <use xlink:href="#DejaVuSans-64" transform="translate(177.503906 0)"/>
      <use xlink:href="#DejaVuSans-61" transform="translate(240.980469 0)"/>
      <use xlink:href="#DejaVuSans-74" transform="translate(302.259766 0)"/>
      <use xlink:href="#DejaVuSans-69" transform="translate(341.46875 0)"/>
      <use xlink:href="#DejaVuSans-6f" transform="translate(369.251953 0)"/>
      <use xlink:href="#DejaVuSans-6e" transform="translate(430.433594 0)"/>
      <use xlink:href="#DejaVuSans-20" transform="translate(493.8125 0)"/>
      <use xlink:href="#DejaVuSans-41" transform="translate(525.599609 0)"/>
      <use xlink:href="#DejaVuSans-63" transform="translate(592.257812 0)"/>
      <use xlink:href="#DejaVuSans-63" transform="translate(647.238281 0)"/>
      <use xlink:href="#DejaVuSans-75" transform="translate(702.21875 0)"/>
      <use xlink:href="#DejaVuSans-72" transform="translate(765.597656 0)"/>
      <use xlink:href="#DejaVuSans-61" transform="translate(806.710938 0)"/>
      <use xlink:href="#DejaVuSans-63" transform="translate(867.990234 0)"/>
      <use xlink:href="#DejaVuSans-79" transform="translate(922.970703 0)"/>
     </g>
    </g>
   </g>
  </g>
 </g>
 <defs>
  <clipPath id="p970d725cb1">
   <rect x="72" y="43.2" width="446.4" height="277.2"/>
  </clipPath>
 </defs>
</svg>
